<?xml version="1.0" standalone="no"?>
<!DOCTYPE svg PUBLIC "-//W3C//DTD SVG 20010904//EN"
 "http://www.w3.org/TR/2001/REC-SVG-20010904/DTD/svg10.dtd">
<svg version="1.0" xmlns="http://www.w3.org/2000/svg"
 width="2730.000000pt" height="1536.000000pt" viewBox="0 0 2730.000000 1536.000000"
 preserveAspectRatio="xMidYMid meet">

<g transform="translate(0.000000,1536.000000) scale(0.100000,-0.100000)"
fill="#000000" stroke="none">
<path d="M10040 10032 c-57 -13 -141 -63 -195 -117 -44 -44 -69 -84 -109 -174
-6 -13 -11 -62 -11 -110 0 -135 37 -232 121 -316 73 -74 191 -129 339 -160 81
-17 252 -59 350 -85 146 -39 284 -120 401 -235 86 -85 119 -128 168 -222 84
-163 65 -303 -57 -427 -63 -64 -94 -86 -187 -132 -187 -92 -346 -128 -616
-140 -222 -9 -321 -30 -434 -92 -88 -48 -159 -134 -191 -233 -38 -118 -16
-286 52 -387 16 -24 29 -46 29 -50 0 -18 102 -98 160 -126 59 -28 74 -31 160
-31 88 1 100 3 160 34 87 45 158 101 261 207 309 319 526 447 894 528 180 40
551 60 684 36 31 -5 112 -16 181 -24 116 -14 237 -35 320 -56 19 -4 82 -20
140 -33 226 -54 586 -164 699 -213 20 -9 46 -20 59 -25 12 -5 32 -13 45 -18
181 -73 357 -188 480 -316 109 -112 171 -209 367 -570 73 -136 136 -221 236
-320 94 -94 163 -137 277 -175 246 -83 537 -46 744 94 129 88 198 164 261 292
70 140 108 274 172 599 60 306 85 391 175 580 39 84 144 259 164 275 3 3 19
23 36 45 58 78 222 231 330 308 65 46 186 116 295 171 258 130 322 164 340
181 9 8 22 15 29 15 22 0 206 194 233 245 97 190 100 415 8 602 -66 134 -222
260 -360 292 -58 13 -222 14 -290 1 -157 -30 -350 -183 -436 -345 -29 -57
-100 -240 -138 -360 -59 -182 -172 -444 -197 -453 -5 -2 -9 -9 -9 -17 0 -25
-149 -211 -246 -308 -206 -206 -413 -333 -693 -426 -294 -98 -608 -107 -951
-28 -149 35 -381 133 -492 208 -31 22 -60 39 -63 39 -7 0 -220 159 -250 187
-11 10 -47 40 -80 68 -33 27 -65 54 -71 60 -6 5 -36 30 -65 55 -30 24 -81 70
-114 101 -146 136 -440 359 -474 359 -5 0 -11 3 -13 8 -4 9 -75 43 -163 77
-38 15 -79 31 -90 36 -11 5 -58 19 -105 30 -78 19 -117 22 -455 24 -362 2
-372 3 -460 28 -289 82 -452 203 -655 488 -126 177 -168 230 -239 299 -49 49
-101 89 -149 113 -67 35 -79 38 -175 42 -56 2 -118 1 -137 -3z"/>
</g>
</svg>
